# xmcd CD database file
#
# Track frame offsets:
#	150
#	23040
#	42025
#	70571
#	90242
#	105573
#	123484
#	146137
#	167984
#	187855
#	204681
#
# Disc length: 2927 seconds
#
# Revision: 0
# Processed by: cddbd v1.5.2PL0 Copyright (c) Steve Scherf et al.
# Submitted via: CDex 1.51
#
DISCID=8c0b6d0b
DTITLE=The Kill Devil Hills - Heathen Songs
DYEAR=2004
DGENRE=Country
TTITLE0=Changin' the Weather
TTITLE1=Gunslinger
TTITLE2=Angry Town
TTITLE3=Heathen
TTITLE4=People Stain
TTITLE5=Drinking Too Much
TTITLE6=6=5
TTITLE7=Trying to Forget
TTITLE8=Brown Skin
TTITLE9=Kill Devil Hills
TTITLE10=Changin' the Weather (Reprise)
EXTD=YEAR: 2004
EXTT0=
EXTT1=
EXTT2=
EXTT3=
EXTT4=
EXTT5=
EXTT6=
EXTT7=
EXTT8=
EXTT9=
EXTT10=
PLAYORDER=
